<?xml version="1.0" encoding="utf-8"?>
<!-- Generator: Adobe Illustrator 23.0.1, SVG Export Plug-In . SVG Version: 6.00 Build 0)  -->
<svg version="1.1" xmlns="http://www.w3.org/2000/svg" xmlns:xlink="http://www.w3.org/1999/xlink" x="0px" y="0px" width="267.1px"
	 height="247.2px" viewBox="0 0 267.1 247.2" style="enable-background:new 0 0 267.1 247.2;" xml:space="preserve">
<style type="text/css">
	.st0{display:none;}
</style>
<g id="Layer_1" class="st0">
	
		<image style="display:inline;overflow:visible;" width="594" height="642" xlink:href="../../Desktop/Screenshot 2019-02-23 at 10.48.06 AM.png"  transform="matrix(0.5 0 0 0.5 85.4912 56.145)">
	</image>
</g>
<g id="Layer_2">
	<path d="M225,99.5c3.3-3.4,5.2-8,5.2-12.7l12-72.8l-75.9,8.6c-1.9-0.1-3.9,0.2-5.7,0.8l0,0l-0.1,0.1c-0.4,0.1-0.8,0.2-1.2,0.4
		c-2.3,0.9-4.4,2.3-6.2,4L32,148.5c-0.3,0.3-0.7,0.6-0.9,0.9l-1.3,1.3c-11.6,11.6-11.6,30.4,0,42l31,31c10.9,10.9,28.1,11.5,39.8,2
		L225,99.5z M220.7,95.3l-104.4,106l-13-13.2L209.6,82.3l11.9,12.1C221.2,94.7,221,95,220.7,95.3z M192.9,65.3L205.4,78L99.1,183.9
		L86,170.6L192.9,65.3z M81.8,166.3l-12.6-12.8L175.4,47.3L188.8,61L81.8,166.3z M166.2,28.7l0.2,0l44.1-5l20.3,22.1l-6.7,40.6
		l0,0.3c0,0.6,0,1.2-0.1,1.8l-58.5-59.8C165.8,28.7,166,28.7,166.2,28.7z M157.2,32.2c0.6-0.6,1.2-1.1,1.9-1.5L171.2,43L65,149.3
		l-12.5-12.7L157.2,32.2z M48.2,140.8l63.9,64.8l-8.6,8.7l-65.6-63.3L48.2,140.8z M33.6,155.3l65.6,63.3l-0.7,0.7
		c-9.2,9.2-24.3,9.2-33.5,0l-31-31C24.9,179.3,24.8,164.6,33.6,155.3z"/>
</g>
</svg>
