<svg xmlns="http://www.w3.org/2000/svg" width="300.641" height="300.641" viewBox="0 0 300.641 300.641">
  <title>KB Editing</title>
  <circle cx="150.616" cy="150.593" r="132.778" fill="#8acbc7"/>
  <circle cx="150.32" cy="150.32" r="142.82" fill="none" stroke="#8acbc7" stroke-miterlimit="10" stroke-width="15"/>
  <g>
    <path d="M146.769,193.718,129.73,211.246v18.213h-1.958V160.914h1.958V208.6l46.416-47.688h2.644l-30.552,31.433,32.8,37.112H178.4Z" transform="translate(-38.811 -37.89)" fill="#fff"/>
    <path d="M259.281,211.54q0,8.717-6.219,13.317t-18.556,4.6H205.423V160.914h27.125q10.772,0,16.891,4.456t6.122,12.876a15.361,15.361,0,0,1-3.575,10.527,18.272,18.272,0,0,1-9.939,5.533Q259.279,196.655,259.281,211.54Zm-51.9-48.766v30.944h25.557q9.891,0,15.276-3.966t5.387-11.506q0-7.539-5.387-11.506t-15.276-3.966Zm49.94,48.766q0-8.127-5.631-12.045T234.9,195.579H207.382V227.6H234.9Q257.32,227.6,257.322,211.54Z" transform="translate(-38.811 -37.89)" fill="#fff"/>
  </g>
</svg>